<svg width="125" height="65" viewBox="0 0 125 65" fill="none" xmlns="http://www.w3.org/2000/svg">
<path d="M38 16.25H39C39 7.9686 46.9064 1 57 1C67.0937 1 75 7.9686 75 16.25C75 24.5315 67.0937 31.5 57 31.5V32.5V33.5C67.0937 33.5 75 40.4685 75 48.75C75 57.0315 67.0937 64 57 64C46.9063 64 39 57.0315 39 48.75H38H37C37 57.0315 29.0937 64 19 64C8.9065 64 1 57.0315 1 48.75C1 40.4685 8.9065 33.5 19 33.5V32.5V31.5C8.9065 31.5 1 24.5315 1 16.25C1 7.96861 8.90651 1 19 1C29.0937 1 37 7.9686 37 16.25H38Z" stroke="#F40000" stroke-width="2"/>
<path d="M54 16.25H55C55 7.9686 62.9064 1 73 1C83.0937 1 91 7.9686 91 16.25C91 24.5315 83.0937 31.5 73 31.5V32.5V33.5C83.0937 33.5 91 40.4685 91 48.75C91 57.0315 83.0937 64 73 64C62.9063 64 55 57.0315 55 48.75H54H53C53 57.0315 45.0937 64 35 64C24.9065 64 17 57.0315 17 48.75C17 40.4685 24.9065 33.5 35 33.5V32.5V31.5C24.9065 31.5 17 24.5315 17 16.25C17 7.96861 24.9065 1 35 1C45.0937 1 53 7.9686 53 16.25H54Z" fill="#F40000" stroke="#F40000" stroke-width="2"/>
<path d="M70 16.25H71C71 7.9686 78.9064 1 89 1C99.0937 1 107 7.9686 107 16.25C107 24.5315 99.0937 31.5 89 31.5V32.5V33.5C99.0937 33.5 107 40.4685 107 48.75C107 57.0315 99.0937 64 89 64C78.9063 64 71 57.0315 71 48.75H70H69C69 57.0315 61.0937 64 51 64C40.9065 64 33 57.0315 33 48.75C33 40.4685 40.9065 33.5 51 33.5V32.5V31.5C40.9065 31.5 33 24.5315 33 16.25C33 7.96861 40.9065 1 51 1C61.0937 1 69 7.9686 69 16.25H70Z" stroke="#F40000" stroke-width="2"/>
<path d="M86 16.25H87C87 7.9686 94.9064 1 105 1C115.094 1 123 7.9686 123 16.25C123 24.5315 115.094 31.5 105 31.5V32.5V33.5C115.094 33.5 123 40.4685 123 48.75C123 57.0315 115.094 64 105 64C94.9063 64 87 57.0315 87 48.75H86H85C85 57.0315 77.0937 64 67 64C56.9065 64 49 57.0315 49 48.75C49 40.4685 56.9065 33.5 67 33.5V32.5V31.5C56.9065 31.5 49 24.5315 49 16.25C49 7.96861 56.9065 1 67 1C77.0937 1 85 7.9686 85 16.25H86Z" stroke="#F40000" stroke-width="2"/>
</svg>
