<svg xmlns="http://www.w3.org/2000/svg" width="132" height="132" viewBox="0 0 155 132" fill="red">
<path d="M77.5 33H78.5C78.5 15.4715 95.2443 1 116.25 1C137.256 1 154 15.4715 154 33C154 50.5288 137.256 65 116.25 65V66V67C137.256 67 154 81.4712 154 99C154 116.529 137.256 131 116.25 131C95.2443 131 78.5 116.529 78.5 99H77.5H76.5C76.5 116.529 59.7557 131 38.75 131C17.7446 131 1 116.529 1 99C1 81.4712 17.7446 67 38.75 67V66V65C17.7446 65 1 50.5288 1 33C1 15.4715 17.7446 1 38.75 1C59.7557 1 76.5 15.4715 76.5 33H77.5Z" fill="red" stroke-width="2"/>
</svg>